<svg xmlns="http://www.w3.org/2000/svg" xmlns:xlink="http://www.w3.org/1999/xlink" width="500" zoomAndPan="magnify" viewBox="0 0 375 374.999991" height="500" preserveAspectRatio="xMidYMid meet" version="1.0"><defs><g/><clipPath id="21ad1d4a46"><path d="M 0 135.859375 L 375 135.859375 L 375 239.359375 L 0 239.359375 Z M 0 135.859375 " clip-rule="nonzero"/></clipPath><clipPath id="1466069b0f"><path d="M 11.511719 145.566406 L 363.964844 145.566406 L 363.964844 229.433594 L 11.511719 229.433594 Z M 11.511719 145.566406 " clip-rule="nonzero"/></clipPath></defs><g clip-path="url(#21ad1d4a46)"><path stroke-linecap="butt" transform="matrix(0.75, 0, 0, 0.751617, 0.00112135, 135.861027)" fill="none" stroke-linejoin="miter" d="M -0.00149513 -0.00219803 L 499.998538 -0.00219803 L 499.998538 137.700936 L -0.00149513 137.700936 L -0.00149513 -0.00219803 " stroke="#ffffff" stroke-width="6" stroke-opacity="1" stroke-miterlimit="4"/></g><g clip-path="url(#1466069b0f)"><path fill="#ffffff" d="M 11.511719 145.566406 L 363.964844 145.566406 L 363.964844 229.433594 L 11.511719 229.433594 Z M 11.511719 145.566406 " fill-opacity="1" fill-rule="nonzero"/></g><g fill="#000000" fill-opacity="1"><g transform="translate(36.470524, 204.158701)"><g><path d="M 5.113281 0 L 9.527344 0 L 9.527344 -11.535156 L 17 -11.535156 C 24.921875 -11.535156 30.039062 -16.097656 30.039062 -23.320312 C 30.039062 -30.488281 24.921875 -35.105469 17 -35.105469 L 5.113281 -35.105469 Z M 9.527344 -15.644531 L 9.527344 -30.890625 L 16.898438 -30.890625 C 22.566406 -30.890625 25.523438 -28.285156 25.523438 -23.269531 C 25.523438 -18.253906 22.566406 -15.644531 16.898438 -15.644531 Z M 9.527344 -15.644531 "/></g></g></g><g fill="#000000" fill-opacity="1"><g transform="translate(72.324304, 204.158701)"><g><path d="M 5.113281 0 L 9.527344 0 L 9.527344 -12.585938 L 17.25 -12.585938 L 25.828125 0 L 31.140625 0 L 22.316406 -13.039062 C 27.429688 -14.292969 30.589844 -18.152344 30.589844 -23.820312 C 30.589844 -30.789062 25.777344 -35.105469 18.503906 -35.105469 L 5.113281 -35.105469 Z M 9.527344 -16.800781 L 9.527344 -30.890625 L 18.003906 -30.890625 C 23.117188 -30.890625 26.078125 -28.285156 26.078125 -23.820312 C 26.078125 -19.355469 23.117188 -16.800781 18.003906 -16.800781 Z M 9.527344 -16.800781 "/></g></g></g><g fill="#000000" fill-opacity="1"><g transform="translate(110.284137, 204.158701)"><g><path d="M 0.851562 0 L 5.566406 0 L 8.777344 -7.972656 L 25.875 -7.972656 L 29.1875 0 L 33.851562 0 L 19.40625 -35.105469 L 15.296875 -35.105469 Z M 10.480469 -12.085938 L 17.351562 -28.933594 L 24.222656 -12.085938 Z M 10.480469 -12.085938 "/></g></g></g><g fill="#000000" fill-opacity="1"><g transform="translate(148.795549, 204.158701)"><g><path d="M 16.800781 0.652344 C 24.472656 0.652344 29.4375 -3.109375 29.4375 -9.226562 C 29.4375 -14.390625 25.976562 -17.5 17 -19.707031 C 10.179688 -21.363281 7.921875 -23.167969 7.921875 -26.078125 C 7.921875 -29.4375 10.933594 -31.542969 15.945312 -31.542969 C 21.113281 -31.542969 24.320312 -28.933594 24.421875 -24.722656 L 28.785156 -24.722656 C 28.734375 -31.542969 23.820312 -35.753906 15.945312 -35.753906 C 8.273438 -35.753906 3.410156 -31.996094 3.410156 -26.078125 C 3.410156 -20.660156 7.269531 -17.652344 15.898438 -15.597656 C 22.214844 -14.089844 24.875 -12.335938 24.875 -9.078125 C 24.875 -5.617188 21.765625 -3.558594 16.800781 -3.558594 C 11.332031 -3.558594 7.523438 -6.269531 7.421875 -10.78125 L 3.007812 -10.78125 C 3.058594 -3.910156 8.425781 0.652344 16.800781 0.652344 Z M 16.800781 0.652344 "/></g></g></g><g fill="#000000" fill-opacity="1"><g transform="translate(185.050492, 204.158701)"><g><path d="M 28.132812 0 L 32.546875 0 L 32.546875 -35.105469 L 28.132812 -35.105469 L 28.132812 -20.007812 L 9.527344 -20.007812 L 9.527344 -35.105469 L 5.113281 -35.105469 L 5.113281 0 L 9.527344 0 L 9.527344 -15.796875 L 28.132812 -15.796875 Z M 28.132812 0 "/></g></g></g><g fill="#000000" fill-opacity="1"><g transform="translate(226.520395, 204.158701)"><g><path d="M 0.851562 0 L 5.566406 0 L 8.777344 -7.972656 L 25.875 -7.972656 L 29.1875 0 L 33.851562 0 L 19.40625 -35.105469 L 15.296875 -35.105469 Z M 10.480469 -12.085938 L 17.351562 -28.933594 L 24.222656 -12.085938 Z M 10.480469 -12.085938 "/></g></g></g><g fill="#000000" fill-opacity="1"><g transform="translate(265.031799, 204.158701)"><g><path d="M 5.113281 0 L 9.476562 0 L 9.476562 -27.480469 L 28.886719 0 L 32.996094 0 L 32.996094 -35.105469 L 28.683594 -35.105469 L 28.683594 -7.621094 L 9.277344 -35.105469 L 5.113281 -35.105469 Z M 5.113281 0 "/></g></g></g><g fill="#000000" fill-opacity="1"><g transform="translate(306.953015, 204.158701)"><g><path d="M 13.589844 0 L 18.003906 0 L 18.003906 -30.890625 L 29.839844 -30.890625 L 29.839844 -35.105469 L 1.703125 -35.105469 L 1.703125 -30.890625 L 13.589844 -30.890625 Z M 13.589844 0 "/></g></g></g></svg>